HIERARCHY
ROOT Hips
{
	OFFSET 0.000000 100.481300 0.000000
	CHANNELS 6 Xposition Yposition Zposition Xrotation Yrotation Zrotation
	JOINT Spine
	{
		OFFSET -0.279200 12.230698 -2.892100
		CHANNELS 3 Xrotation Yrotation Zrotation
		JOINT Spine1
		{
			OFFSET -0.325700 14.269203 -3.374200
			CHANNELS 3 Xrotation Yrotation Zrotation
			JOINT Spine2
			{
				OFFSET -0.372300 16.307602 -0.352600
				CHANNELS 3 Xrotation Yrotation Zrotation
				JOINT Neck
				{
					OFFSET -0.418800 17.814194 8.416900
					CHANNELS 3 Xrotation Yrotation Zrotation
					JOINT Head
					{
						OFFSET 0.000000 7.031097 3.806800
						CHANNELS 3 Xrotation Yrotation Zrotation
						JOINT HeadTop_End
						{
							OFFSET 0.000000 24.646606 12.978600
							CHANNELS 3 Xrotation Yrotation Zrotation
							End Site
							{
								OFFSET 0.000000 27.854965 0.000000
							}
						}
					}
				}
				JOINT LeftShoulder
				{
					OFFSET 16.952999 14.495407 -7.737500
					CHANNELS 3 Xrotation Yrotation Zrotation
					JOINT LeftArm
					{
						OFFSET 9.308998 -2.777710 0.208600
						CHANNELS 3 Xrotation Yrotation Zrotation
						JOINT LeftForeArm
						{
							OFFSET 29.972298 0.000000 0.000000
							CHANNELS 3 Xrotation Yrotation Zrotation
							JOINT LeftHand
							{
								OFFSET 26.026505 0.000000 0.000000
								CHANNELS 3 Xrotation Yrotation Zrotation
								JOINT LeftHandThumb1
								{
									OFFSET 12.240501 -7.147949 9.207150
									CHANNELS 3 Xrotation Yrotation Zrotation
									JOINT LeftHandThumb2
									{
										OFFSET 4.138618 -2.389435 2.389433
										CHANNELS 3 Xrotation Yrotation Zrotation
										JOINT LeftHandThumb3
										{
											OFFSET 2.726913 -1.574387 1.574386
											CHANNELS 3 Xrotation Yrotation Zrotation
											JOINT LeftHandThumb4
											{
												OFFSET 3.941010 -2.275345 2.275342
												CHANNELS 3 Xrotation Yrotation Zrotation
												End Site
												{
													OFFSET -0.005798 5.087799 0.009903
												}
											}
										}
									}
								}
								JOINT LeftHandIndex1
								{
									OFFSET 24.424698 -1.985611 5.953459
									CHANNELS 3 Xrotation Yrotation Zrotation
									JOINT LeftHandIndex2
									{
										OFFSET 6.426697 0.000000 0.000000
										CHANNELS 3 Xrotation Yrotation Zrotation
										JOINT LeftHandIndex3
										{
											OFFSET 5.337898 0.000000 0.000000
											CHANNELS 3 Xrotation Yrotation Zrotation
											JOINT LeftHandIndex4
											{
												OFFSET 4.409401 0.000000 0.000000
												CHANNELS 3 Xrotation Yrotation Zrotation
												End Site
												{
													OFFSET 0.000000 4.409363 0.014373
												}
											}
										}
									}
								}
								JOINT LeftHandMiddle1
								{
									OFFSET 23.810104 0.000000 0.000000
									CHANNELS 3 Xrotation Yrotation Zrotation
									JOINT LeftHandMiddle2
									{
										OFFSET 7.176498 0.000000 0.000000
										CHANNELS 3 Xrotation Yrotation Zrotation
										JOINT LeftHandMiddle3
										{
											OFFSET 6.774902 0.000000 0.000000
											CHANNELS 3 Xrotation Yrotation Zrotation
											JOINT LeftHandMiddle4
											{
												OFFSET 5.403328 0.000000 0.000000
												CHANNELS 3 Xrotation Yrotation Zrotation
												End Site
												{
													OFFSET -0.027702 5.403244 0.017414
												}
											}
										}
									}
								}
								JOINT LeftHandRing1
								{
									OFFSET 22.908401 -0.839279 -6.020567
									CHANNELS 3 Xrotation Yrotation Zrotation
									JOINT LeftHandRing2
									{
										OFFSET 6.337502 0.000000 0.000000
										CHANNELS 3 Xrotation Yrotation Zrotation
										JOINT LeftHandRing3
										{
											OFFSET 5.779297 0.000000 0.000000
											CHANNELS 3 Xrotation Yrotation Zrotation
											JOINT LeftHandRing4
											{
												OFFSET 4.965698 0.000000 0.000000
												CHANNELS 3 Xrotation Yrotation Zrotation
												End Site
												{
													OFFSET 0.000000 4.965668 0.016186
												}
											}
										}
									}
								}
								JOINT LeftHandPinky1
								{
									OFFSET 20.037003 -1.530319 -10.950146
									CHANNELS 3 Xrotation Yrotation Zrotation
									JOINT LeftHandPinky2
									{
										OFFSET 5.254700 0.000000 0.000000
										CHANNELS 3 Xrotation Yrotation Zrotation
										JOINT LeftHandPinky3
										{
											OFFSET 4.810204 0.000000 0.000000
											CHANNELS 3 Xrotation Yrotation Zrotation
											JOINT LeftHandPinky4
											{
												OFFSET 3.647202 0.000000 0.000000
												CHANNELS 3 Xrotation Yrotation Zrotation
												End Site
												{
													OFFSET 0.000000 3.647186 0.011889
												}
											}
										}
									}
								}
							}
						}
					}
				}
				JOINT RightShoulder
				{
					OFFSET -15.141001 14.495407 -7.737500
					CHANNELS 3 Xrotation Yrotation Zrotation
					JOINT RightArm
					{
						OFFSET -9.308998 -2.777710 0.208500
						CHANNELS 3 Xrotation Yrotation Zrotation
						JOINT RightForeArm
						{
							OFFSET -29.972300 0.000000 0.000000
							CHANNELS 3 Xrotation Yrotation Zrotation
							JOINT RightHand
							{
								OFFSET -26.026505 0.000000 0.000000
								CHANNELS 3 Xrotation Yrotation Zrotation
								JOINT RightHandThumb1
								{
									OFFSET -12.240601 -7.148026 9.207092
									CHANNELS 3 Xrotation Yrotation Zrotation
									JOINT RightHandThumb2
									{
										OFFSET -4.138618 -2.389435 2.389433
										CHANNELS 3 Xrotation Yrotation Zrotation
										JOINT RightHandThumb3
										{
											OFFSET -2.726974 -1.574417 1.574421
											CHANNELS 3 Xrotation Yrotation Zrotation
											JOINT RightHandThumb4
											{
												OFFSET -3.941010 -2.275345 2.275343
												CHANNELS 3 Xrotation Yrotation Zrotation
												End Site
												{
													OFFSET 0.005814 5.087799 0.009927
												}
											}
										}
									}
								}
								JOINT RightHandIndex1
								{
									OFFSET -24.424698 -1.985657 5.953444
									CHANNELS 3 Xrotation Yrotation Zrotation
									JOINT RightHandIndex2
									{
										OFFSET -6.426697 0.000000 0.000000
										CHANNELS 3 Xrotation Yrotation Zrotation
										JOINT RightHandIndex3
										{
											OFFSET -5.337898 0.000000 0.000000
											CHANNELS 3 Xrotation Yrotation Zrotation
											JOINT RightHandIndex4
											{
												OFFSET -4.409401 0.000000 0.000000
												CHANNELS 3 Xrotation Yrotation Zrotation
												End Site
												{
													OFFSET 0.000000 4.409363 0.014408
												}
											}
										}
									}
								}
								JOINT RightHandMiddle1
								{
									OFFSET -23.810097 0.000000 0.000000
									CHANNELS 3 Xrotation Yrotation Zrotation
									JOINT RightHandMiddle2
									{
										OFFSET -7.176498 0.000000 0.000000
										CHANNELS 3 Xrotation Yrotation Zrotation
										JOINT RightHandMiddle3
										{
											OFFSET -6.774902 0.000000 0.000000
											CHANNELS 3 Xrotation Yrotation Zrotation
											JOINT RightHandMiddle4
											{
												OFFSET -5.403328 0.000000 0.000000
												CHANNELS 3 Xrotation Yrotation Zrotation
												End Site
												{
													OFFSET 0.027702 5.403244 0.017457
												}
											}
										}
									}
								}
								JOINT RightHandRing1
								{
									OFFSET -22.908302 -0.839325 -6.020576
									CHANNELS 3 Xrotation Yrotation Zrotation
									JOINT RightHandRing2
									{
										OFFSET -6.337502 0.000000 0.000000
										CHANNELS 3 Xrotation Yrotation Zrotation
										JOINT RightHandRing3
										{
											OFFSET -5.779297 0.000000 0.000000
											CHANNELS 3 Xrotation Yrotation Zrotation
											JOINT RightHandRing4
											{
												OFFSET -4.965698 0.000000 0.000000
												CHANNELS 3 Xrotation Yrotation Zrotation
												End Site
												{
													OFFSET 0.000000 4.965668 0.016226
												}
											}
										}
									}
								}
								JOINT RightHandPinky1
								{
									OFFSET -20.037003 -1.530334 -10.950259
									CHANNELS 3 Xrotation Yrotation Zrotation
									JOINT RightHandPinky2
									{
										OFFSET -5.254700 0.000000 0.000000
										CHANNELS 3 Xrotation Yrotation Zrotation
										JOINT RightHandPinky3
										{
											OFFSET -4.810204 0.000000 0.000000
											CHANNELS 3 Xrotation Yrotation Zrotation
											JOINT RightHandPinky4
											{
												OFFSET -3.647202 0.000000 0.000000
												CHANNELS 3 Xrotation Yrotation Zrotation
												End Site
												{
													OFFSET 0.000000 3.647186 0.011917
												}
											}
										}
									}
								}
							}
						}
					}
				}
			}
		}
	}
	JOINT LeftUpLeg
	{
		OFFSET 15.427100 -6.655098 0.678600
		CHANNELS 3 Xrotation Yrotation Zrotation
		JOINT LeftLeg
		{
			OFFSET 4.081073 -39.591068 13.024000
			CHANNELS 3 Xrotation Yrotation Zrotation
			JOINT LeftFoot
			{
				OFFSET -4.081074 -37.707932 -15.979700
				CHANNELS 3 Xrotation Yrotation Zrotation
				JOINT LeftToeBase
				{
					OFFSET 5.346399 -15.068900 20.645000
					CHANNELS 3 Xrotation Yrotation Zrotation
					JOINT LeftToe_End
					{
						OFFSET 2.754700 0.931300 11.300900
						CHANNELS 3 Xrotation Yrotation Zrotation
						End Site
						{
							OFFSET 0.000000 11.669021 0.000000
						}
					}
				}
			}
		}
	}
	JOINT RightUpLeg
	{
		OFFSET -15.569500 -6.655098 0.678600
		CHANNELS 3 Xrotation Yrotation Zrotation
		JOINT RightLeg
		{
			OFFSET -4.081825 -39.591045 13.023800
			CHANNELS 3 Xrotation Yrotation Zrotation
			JOINT RightFoot
			{
				OFFSET 4.081824 -37.707954 -15.979600
				CHANNELS 3 Xrotation Yrotation Zrotation
				JOINT RightToeBase
				{
					OFFSET -5.346400 -15.068900 20.645000
					CHANNELS 3 Xrotation Yrotation Zrotation
					JOINT RightToe_End
					{
						OFFSET -2.754700 0.931300 11.300900
						CHANNELS 3 Xrotation Yrotation Zrotation
						End Site
						{
							OFFSET 0.000000 11.669021 0.000000
						}
					}
				}
			}
		}
	}
}
MOTION
Frames: 5
Frame Time: 0.033333
66.480881 136.282806 97.159546 -196.539499 214.120543 -14.766806 6.598576 -20.903902 -23.221555 -0.405292 -3.500310 -5.752077 -0.216823 -3.203978 -5.832283 2.448582 1.500115 -7.320917 0.529350 2.119529 -25.688782 -0.000000 0.000000 0.000001 0.346657 -12.835847 -14.001576 -56.596611 0.461129 -25.961766 0.000020 -129.307953 0.000026 -27.391647 -9.215186 -7.689340 -7.099182 -8.041306 -0.222375 5.378423 32.423294 6.791703 -3.135710 30.634751 4.801801 0.000001 0.000001 -0.000000 0.080630 2.790946 -4.198105 0.277937 1.784723 -17.701801 0.277939 1.784726 -17.701784 0.000003 -0.000002 0.000001 0.824154 5.245930 -28.467115 0.610317 2.605468 -26.362913 0.700649 2.780111 -28.285471 -0.000001 0.000003 0.000002 2.652563 7.210096 -56.183814 2.411757 4.736361 -53.950814 2.579238 4.853421 -55.954388 0.000002 0.000002 -0.000002 2.390942 7.023265 -52.832261 2.533165 4.822085 -55.407966 2.533148 4.822075 -55.407881 -0.000000 -0.000001 0.000001 -0.186464 4.375816 -25.553917 -42.150931 -32.756563 -20.367687 -0.000007 45.711755 0.000007 -4.049715 -10.434414 -87.335512 -71.062791 -10.249141 14.861773 4.678731 -17.362798 -5.842549 -9.173453 3.200921 -14.489054 0.000002 -0.000002 -0.000000 0.533707 8.628053 -2.149962 0.000391 -0.060538 0.743180 0.000296 0.052488 -0.644225 0.000000 -0.000002 -0.000000 0.058799 -1.964361 -4.242028 0.000387 -0.060120 0.738060 0.001060 -0.099600 1.222642 0.000000 -0.000001 0.000000 -0.610418 -8.513983 -6.097083 0.000213 -0.044742 0.549035 0.000011 0.010015 -0.122864 -0.000000 -0.000001 -0.000000 -1.274692 -13.705979 -6.992492 0.001527 -0.119355 1.465430 0.000560 0.072182 -0.885981 0.000000 -0.000001 0.000000 -66.985912 -12.231073 52.650643 42.134450 -8.354845 12.447983 -14.294962 13.810468 -5.454986 -3.255776 -0.000043 -0.000026 -0.000003 0.000002 -0.000000 -106.022417 -66.413037 -46.999392 119.291535 -15.274509 -16.206722 25.334510 24.046888 29.205561 -3.887744 -0.000018 -0.000008 0.000001 0.000002 0.000004 
67.226028 136.292236 96.483055 -195.998999 212.733290 -14.662046 6.754484 -20.581006 -23.273318 -0.356645 -3.423004 -5.676895 -0.168903 -3.130808 -5.742968 2.467761 1.549734 -7.503957 0.127646 2.687867 -25.909433 -0.000001 -0.000001 -0.000000 0.454935 -12.380841 -13.500638 -56.784605 0.690253 -25.628349 -0.000047 -129.491139 -0.000042 -27.438625 -9.109417 -6.845748 -7.099308 -8.041752 -0.222519 5.378102 32.424202 6.790140 -3.132662 30.634696 4.795559 -0.000002 0.000003 0.000001 0.081106 2.791170 -4.199353 0.277937 1.784728 -17.701789 0.277937 1.784721 -17.701793 0.000002 0.000001 0.000002 0.823414 5.244573 -28.467197 0.610315 2.605475 -26.362870 0.700608 2.780030 -28.284628 -0.000001 0.000001 0.000001 2.653539 7.210749 -56.183811 2.411751 4.736358 -53.950824 2.579249 4.853422 -55.954382 -0.000000 -0.000000 -0.000001 2.392494 7.024060 -52.832254 2.533172 4.822080 -55.407990 2.533150 4.822069 -55.407884 -0.000005 0.000001 -0.000001 -0.009872 5.027061 -24.912804 -41.660507 -32.113244 -20.801392 -0.000001 45.329179 -0.000008 -5.477538 -10.933658 -87.937647 -71.062818 -10.249713 14.861925 4.678342 -17.362802 -5.842697 -9.174213 3.200745 -14.488348 0.000000 -0.000002 -0.000002 0.533693 8.627676 -2.149991 0.000392 -0.060600 0.743851 0.000298 0.052499 -0.644223 -0.000001 0.000001 0.000000 0.058754 -1.965005 -4.242084 0.000387 -0.060064 0.737473 0.001061 -0.099606 1.222672 0.000001 -0.000003 0.000000 -0.610581 -8.513845 -6.098591 0.000213 -0.044739 0.549061 0.000011 0.010002 -0.122863 0.000000 -0.000000 0.000000 -1.274690 -13.705985 -6.992493 0.001527 -0.119356 1.465479 0.000559 0.072181 -0.885980 -0.000000 0.000000 -0.000000 -66.854219 -12.269065 52.878949 41.869265 -8.477567 12.067948 -14.357491 15.179687 -5.322765 -3.638744 0.000003 -0.000014 -0.000002 0.000001 -0.000002 -117.811119 -69.573529 -55.144499 119.391201 -19.717921 -20.301028 24.890222 23.787613 30.049800 -2.911962 -0.000011 0.000000 0.000001 0.000001 -0.000003 
68.095871 136.254440 95.824219 -195.547182 211.251481 -14.552468 7.003982 -20.233640 -23.367402 -0.273296 -3.344319 -5.673847 -0.093146 -3.055655 -5.751945 2.206581 1.534464 -7.431000 -0.847430 2.681547 -25.590950 -0.000000 -0.000000 -0.000001 0.568760 -11.861064 -12.928191 -57.001006 0.949174 -25.246201 0.000002 -129.700306 -0.000001 -27.501823 -8.993144 -5.882255 -7.099367 -8.041915 -0.222581 5.378242 32.425059 6.788268 -3.130241 30.633941 4.793618 -0.000001 0.000002 -0.000003 0.081590 2.791289 -4.200463 0.277942 1.784726 -17.701789 0.277932 1.784728 -17.701800 -0.000001 -0.000002 0.000001 0.824729 5.246991 -28.467038 0.610321 2.605471 -26.362894 0.700569 2.779963 -28.283877 0.000002 0.000002 0.000002 2.653457 7.210688 -56.183797 2.411751 4.736352 -53.950817 2.579230 4.853424 -55.954368 -0.000002 0.000001 -0.000002 2.393399 7.024559 -52.832268 2.533160 4.822086 -55.407994 2.533150 4.822079 -55.407888 -0.000003 0.000001 -0.000001 0.138417 5.466941 -24.326808 -41.594828 -31.655710 -20.986875 0.000003 44.637178 -0.000004 -6.617438 -11.004368 -88.462377 -71.062886 -10.250348 14.862089 4.678050 -17.362785 -5.842803 -9.174846 3.200589 -14.487748 0.000000 -0.000002 0.000002 0.533681 8.627339 -2.150015 0.000393 -0.060643 0.744439 0.000296 0.052480 -0.644224 0.000000 0.000000 -0.000000 0.058711 -1.965570 -4.242129 0.000389 -0.060019 0.736938 0.001061 -0.099606 1.222706 -0.000000 0.000002 0.000001 -0.610787 -8.513682 -6.100483 0.000213 -0.044725 0.549091 0.000012 0.010004 -0.122864 -0.000000 -0.000002 0.000000 -1.274691 -13.705981 -6.992495 0.001527 -0.119374 1.465536 0.000560 0.072182 -0.885980 0.000000 -0.000000 -0.000000 -66.031291 -12.053589 52.690723 41.332832 -8.557217 12.029636 -14.444242 16.592836 -5.475308 -3.750406 -0.000004 -0.000001 -0.000000 0.000000 -0.000001 -136.878931 -72.386830 -69.693160 118.731241 -25.288000 -25.776601 24.492186 23.461090 31.179452 -2.269966 0.000008 -0.000032 0.000000 -0.000003 0.000002 
69.151627 136.170990 95.256462 -195.034453 209.859311 -14.629306 7.256724 -19.811626 -23.377688 -0.200549 -3.260033 -5.706614 -0.024981 -2.971524 -5.747319 2.033837 1.502664 -7.470405 -1.823084 2.483389 -25.610264 -0.000000 0.000002 0.000000 0.680574 -11.296374 -12.305667 -57.238058 1.227109 -24.829423 -0.000015 -129.927396 -0.000021 -27.581918 -8.872614 -4.835452 -7.099337 -8.041836 -0.222534 5.378715 32.425872 6.786312 -3.127574 30.633030 4.792465 0.000000 0.000003 -0.000000 0.082120 2.791334 -4.201449 0.277936 1.784725 -17.701784 0.277939 1.784729 -17.701808 -0.000000 0.000001 -0.000000 0.825972 5.249271 -28.466912 0.610310 2.605470 -26.362877 0.700540 2.779904 -28.283139 -0.000000 -0.000001 -0.000002 2.652584 7.210110 -56.183787 2.411753 4.736362 -53.950824 2.579233 4.853425 -55.954368 -0.000001 -0.000001 0.000001 2.394136 7.025086 -52.832254 2.533161 4.822082 -55.407984 2.533146 4.822074 -55.407878 0.000002 -0.000000 0.000000 0.273365 5.662891 -24.150383 -41.541262 -31.189950 -20.441260 0.000005 43.996660 0.000005 -7.232460 -11.096775 -88.916434 -71.062975 -10.251025 14.862244 4.677788 -17.362766 -5.842862 -9.175391 3.200461 -14.487244 -0.000000 0.000001 0.000001 0.533668 8.627045 -2.150040 0.000396 -0.060688 0.744932 0.000296 0.052480 -0.644224 -0.000001 -0.000001 0.000000 0.058675 -1.966036 -4.242167 0.000387 -0.059969 0.736465 0.001062 -0.099603 1.222747 0.000000 0.000001 0.000000 -0.611016 -8.513511 -6.102572 0.000213 -0.044741 0.549124 0.000011 0.010010 -0.122862 -0.000000 0.000003 0.000000 -1.274691 -13.705997 -6.992495 0.001527 -0.119386 1.465601 0.000558 0.072178 -0.885981 0.000000 -0.000002 -0.000000 -65.298828 -11.615657 52.363372 40.540882 -8.527153 12.081642 -14.385611 17.128678 -5.463933 -3.990142 -0.000006 -0.000027 -0.000002 0.000000 -0.000001 -160.356436 -73.659328 -88.954492 117.158658 -30.742022 -31.836809 23.953103 23.102785 32.536067 -1.940613 0.000010 0.000012 0.000001 0.000001 0.000001 
70.327209 136.102081 94.788773 -194.472069 208.536836 -14.823303 7.494637 -19.355452 -23.338814 -0.134859 -3.173651 -5.727546 0.035127 -2.887135 -5.750185 1.860252 1.461574 -7.515278 -2.820756 2.224629 -25.640906 0.000000 -0.000003 -0.000000 0.784242 -10.706804 -11.654592 -57.487824 1.513679 -24.392342 -0.000019 -130.164472 -0.000020 -27.678058 -8.753557 -3.742036 -7.099259 -8.041554 -0.222463 5.379454 32.426637 6.784260 -3.124810 30.632121 4.791829 0.000001 0.000001 -0.000004 0.082667 2.791304 -4.202440 0.277939 1.784731 -17.701788 0.277931 1.784719 -17.701786 -0.000001 0.000001 0.000000 0.826454 5.250154 -28.466833 0.610309 2.605466 -26.362911 0.700502 2.779842 -28.282444 0.000000 0.000001 0.000004 2.651204 7.209199 -56.183794 2.411755 4.736348 -53.950841 2.579240 4.853425 -55.954382 0.000001 0.000002 -0.000001 2.394674 7.025598 -52.832237 2.533163 4.822082 -55.407977 2.533145 4.822078 -55.407888 -0.000002 0.000001 0.000000 0.359253 5.760036 -23.989709 -41.489834 -30.450592 -19.693500 0.000001 43.335450 -0.000010 -7.573544 -11.261341 -89.315413 -71.063112 -10.251587 14.862446 4.677568 -17.362756 -5.842861 -9.175811 3.200384 -14.486823 0.000000 -0.000002 -0.000001 0.533658 8.626777 -2.150060 0.000397 -0.060716 0.745320 0.000295 0.052481 -0.644224 0.000001 0.000002 0.000001 0.058653 -1.966356 -4.242196 0.000384 -0.059956 0.736069 0.001060 -0.099611 1.222790 -0.000001 -0.000003 -0.000000 -0.611267 -8.513307 -6.104865 0.000216 -0.044715 0.549161 0.000011 0.010005 -0.122864 0.000000 0.000001 -0.000000 -1.274694 -13.706003 -6.992496 0.001527 -0.119374 1.465671 0.000558 0.072167 -0.885980 0.000000 0.000000 0.000001 -64.293575 -11.350394 52.115733 39.606296 -8.570923 12.047175 -14.583752 18.771165 -5.767862 -3.959248 -0.000000 -0.000009 -0.000003 0.000003 -0.000001 -177.177416 -73.019298 -102.797899 115.523456 -34.555891 -36.720043 23.746795 22.857588 33.441098 -1.902962 0.000029 0.000019 -0.000002 -0.000001 0.000001 
